<svg xmlns="http://www.w3.org/2000/svg" viewBox="0 0 800 800" fill="none" aria-hidden="true">
  <g stroke="#000" stroke-width="0.75" stroke-linejoin="round">
    <path d="M0 0 200 58 118 178 0 138Z" />
    <path d="M200 58 400 0 372 158 118 178Z" />
    <path d="M400 0 600 42 545 195 372 158Z" />
    <path d="M600 42 800 0 668 132 545 195Z" />
    <path d="M800 0 800 118 742 198 668 132Z" />
    <path d="M0 138 118 178 88 312 0 268Z" />
    <path d="M118 178 372 158 328 298 168 322 88 312Z" />
    <path d="M372 158 545 195 612 278 328 298Z" />
    <path d="M545 195 668 132 742 198 800 248 612 278Z" />
    <path d="M0 268 88 312 62 448 0 402Z" />
    <path d="M88 312 168 322 142 468 62 448Z" />
    <path d="M168 322 328 298 302 442 142 468Z" />
    <path d="M328 298 612 278 568 418 302 442Z" />
    <path d="M612 278 800 248 800 388 568 418Z" />
    <path d="M0 402 62 448 48 582 0 538Z" />
    <path d="M62 448 142 468 118 602 48 582Z" />
    <path d="M142 468 302 442 278 578 118 602Z" />
    <path d="M302 442 568 418 522 558 278 578Z" />
    <path d="M568 418 800 388 800 528 522 558Z" />
    <path d="M0 538 48 582 28 712 0 668Z" />
    <path d="M48 582 118 602 98 732 28 712Z" />
    <path d="M118 602 278 578 252 708 98 732Z" />
    <path d="M278 578 522 558 488 688 252 708Z" />
    <path d="M522 558 800 528 800 668 488 688Z" />
    <path d="M0 668 28 712 72 800 0 800Z" />
    <path d="M28 712 98 732 228 800 72 800Z" />
    <path d="M98 732 252 708 400 800 228 800Z" />
    <path d="M252 708 488 688 600 800 400 800Z" />
    <path d="M488 688 800 668 800 800 600 800Z" />
    <path d="M400 800 600 800 522 558 252 708Z" />
    <path d="M200 58 0 0 0 138Z" />
    <path d="M600 42 800 0 800 118Z" />
    <path d="M742 198 800 248 800 388Z" />
    <path d="M800 528 800 668 800 800Z" />
  </g>
</svg>
